<?xml version="1.0" encoding="utf-8"?>
<!-- Generator: Adobe Illustrator 28.3.0, SVG Export Plug-In . SVG Version: 6.00 Build 0)  -->
<svg version="1.1" id="Слой_1" xmlns="http://www.w3.org/2000/svg" xmlns:xlink="http://www.w3.org/1999/xlink" x="0px" y="0px"
	 viewBox="0 0 200 200" style="enable-background:new 0 0 200 200;" xml:space="preserve">
<style type="text/css">
	.st0{fill:url(#circle70_00000177468721607303748030000015380839826925384601_);}
	.st1{fill:#FFFFFF;stroke:#014C46;stroke-width:1.1331;stroke-miterlimit:10;}
	.st2{fill:url(#polygon102_00000178200583963262591950000014712108070207794359_);}
	.st3{fill:#FFFFFF;stroke:#014C46;stroke-width:1.625;stroke-miterlimit:10;}
	.st4{fill:#1D1D1B;stroke:#FFFFFF;stroke-width:2.6008;stroke-linecap:round;stroke-miterlimit:10;}
	.st5{fill:none;stroke:#FFFFFF;stroke-width:2.6008;stroke-linecap:round;stroke-miterlimit:10;}
	.st6{fill:#FFFFFF;}
	.st7{fill:#014C46;}
</style>
<radialGradient id="circle70_00000051355151585045653750000009344377050198102704_" cx="574.6093" cy="804.5588" r="33.7625" gradientTransform="matrix(2.0889 0 0 2.0834 -1098.4425 -1607.1833)" gradientUnits="userSpaceOnUse">
	<stop  offset="1.385225e-07" style="stop-color:#4DAF71"/>
	<stop  offset="0.1996" style="stop-color:#41AD72"/>
	<stop  offset="0.4625" style="stop-color:#2C9E6D"/>
	<stop  offset="0.7594" style="stop-color:#18857F"/>
	<stop  offset="1" style="stop-color:#0B616F"/>
</radialGradient>
<path id="circle70_00000126298425931956713340000004707563017277046711_" style="fill:url(#circle70_00000051355151585045653750000009344377050198102704_);" d="
	M42.44,132.07C31.36,118.74,24.7,101.63,24.7,82.98C24.7,40.46,59.25,6,101.86,6c42.62,0,77.16,34.46,77.16,76.98
	c0,18.54-6.57,35.55-17.52,48.84"/>
<polygon id="polygon96_00000152259851849073818770000007097786613132345253_" class="st1" points="42.7,116.04 101.86,13.62 
	161.04,116.04 "/>
<linearGradient id="polygon102_00000040541251736671434890000007886930936684493696_" gradientUnits="userSpaceOnUse" x1="561.6317" y1="802.3122" x2="594.6881" y2="826.8929" gradientTransform="matrix(2.0833 0 0 2.0833 -1097.465 -1607.1427)">
	<stop  offset="0" style="stop-color:#E42C26"/>
	<stop  offset="0.224" style="stop-color:#E32827"/>
	<stop  offset="0.5191" style="stop-color:#E22127"/>
	<stop  offset="0.8524" style="stop-color:#CD2127"/>
	<stop  offset="1" style="stop-color:#BE2126"/>
</linearGradient>
<polygon id="polygon102_00000068668750878971121170000006054502837448033714_" style="fill:url(#polygon102_00000040541251736671434890000007886930936684493696_);" points="
	56.89,108.17 101.86,30.56 146.83,108.17 "/>
<path id="path92_00000057861225498294134760000005695902755776808865_" class="st3" d="M161.16,132.09
	c11.14-13.35,17.86-30.49,17.86-49.12C179.02,40.64,144.31,6,101.86,6C59.43,6,24.67,40.64,24.67,82.97c0,16.88,7.66,36.38,17,49.1
	L161.16,132.09z M156.92,120.62l-109.85,0.36c-7.5-10.76-11.89-23.86-11.89-38.01c0-36.82,29.76-66.51,66.68-66.51
	c36.94,0,66.7,29.69,66.7,66.51C168.56,96.96,164.27,109.92,156.92,120.62"/>
<line class="st4" x1="56.89" y1="108.17" x2="101.86" y2="81.35"/>
<line class="st5" x1="101.86" y1="30.56" x2="101.86" y2="81.35"/>
<line class="st5" x1="146.83" y1="108.17" x2="101.86" y2="81.35"/>
<g>
	<g>
		<path class="st6" d="M57.82,194.93c-11.44-0.58-17.29-6.88-17.42-18.73l-0.01-0.84h13.29l0.01,0.82c0.07,7.45,3.09,7.96,4.17,8.09
			l1.96-0.04c3.08-0.4,4.56-2.32,4.58-6.04c0.06-2.9-0.58-5.04-1.89-6.38c-1.21-1.24-3.09-1.87-5.56-1.87c-0.17,0-0.35,0-0.53,0.01
			H52.3v-10.65h4.17l0.36,0c4.35,0,6.37-2.15,6.37-6.76c-0.14-4.23-2.07-5.07-3.53-5.32h-2.15c-2.44,0.38-3.58,1.71-3.6,4.19v3.59
			H40.74l0-0.83c-0.03-11.33,5.59-17.31,16.68-17.79l2.31,0c10.61,0.29,15.98,5.91,15.98,16.69c0,4.81-1.57,8.62-4.66,11.35
			c3.93,2.55,5.99,6.83,6.13,12.76c0.1,11.53-5.73,17.49-17.32,17.73h-0.01H57.82z"/>
		<path class="st7" d="M59.73,137.23c10.1,0.28,15.16,5.56,15.16,15.86c0,5.03-1.76,8.85-5.28,11.46c4.35,2.3,6.61,6.53,6.75,12.67
			c0.1,11.03-5.41,16.66-16.51,16.88h-2.02c-10.94-0.56-16.46-6.53-16.59-17.91h11.63c0.05,5.54,1.7,8.51,4.95,8.92l2.02-0.04
			c3.57-0.46,5.37-2.74,5.39-6.87c0.12-6.05-2.64-9.08-8.29-9.08c-0.18,0-0.37,0-0.56,0.01h-3.27v-8.99h3.34c0.12,0,0.24,0,0.36,0
			c4.8,0,7.2-2.53,7.2-7.59c-0.12-3.67-1.55-5.72-4.29-6.15h-2.28c-2.89,0.43-4.34,2.1-4.37,5.01v2.77H41.57
			c-0.02-10.85,5.27-16.5,15.89-16.96H59.73 M59.75,135.58h-0.02h-2.28h-0.04l-0.04,0c-11.46,0.49-17.5,6.93-17.48,18.62l0,1.65
			h1.65h11.52h1.66v-1.66v-2.77c0.02-2.04,0.84-3.02,2.84-3.35h2.01c1.25,0.23,2.65,0.99,2.78,4.52c-0.01,4.14-1.67,5.91-5.55,5.91
			c-0.1,0-0.21,0-0.32,0l-3.38,0h-1.66v1.66v8.99v1.66h1.66h3.27h0.03l0.03,0c0.17-0.01,0.34-0.01,0.5-0.01
			c2.25,0,3.92,0.54,4.97,1.62c1.15,1.17,1.71,3.12,1.66,5.77c-0.02,4.13-1.95,4.98-3.86,5.25l-1.8,0.03
			c-0.95-0.13-3.33-0.7-3.39-7.27l-0.01-1.64h-1.64H41.23h-1.67l0.02,1.67c0.13,12.19,6.41,18.95,18.16,19.54l0.04,0h0.04h2.02
			c12-0.25,18.28-6.66,18.17-18.55c-0.14-5.8-2.04-10.11-5.65-12.86c2.78-2.82,4.18-6.6,4.18-11.26c0-11.16-5.8-17.21-16.77-17.52
			L59.75,135.58L59.75,135.58z"/>
	</g>
	<g>
		<path class="st6" d="M98.28,194.93c-5.62-0.1-10.02-1.48-13.1-4.09c-3.27-2.8-4.93-7.02-4.93-12.57V151.4
			c0.08-9.64,6.31-14.66,18.52-14.95h1.88c11.93,0.26,17.93,5.37,17.85,15.19v3.88h-13.64v-4.45c-0.04-1.43-0.53-3.42-4.3-3.82
			l-1.79-0.03c-4.32,0.2-4.86,2.46-4.89,4.13v9.3c2.76-1.82,5.99-2.75,9.63-2.75c0.17,0,0.35,0,0.52,0.01
			c9.57,0,14.44,4.18,14.47,12.42v8.2c-0.03,10.53-6.18,16.06-18.3,16.42h-0.01H98.28z M93.88,179.87
			c-0.04,2.72,1.38,4.13,4.48,4.46l1.83,0.03c3.19-0.13,4.68-1.62,4.63-4.67v-8.51c-0.03-1.46-0.51-3.14-4.02-3.14
			c-0.14,0-0.27,0-0.42,0.01l-0.29,0c-3.3,0-5.34,0.85-6.22,2.61V179.87z"/>
		<path class="st7" d="M100.65,137.27c11.42,0.25,17.09,5.04,17.02,14.35v3.06h-11.98v-3.63c-0.07-2.74-1.75-4.29-5.04-4.65
			l-1.86-0.04c-3.77,0.18-5.69,1.83-5.73,4.95v10.95c2.9-2.37,6.39-3.56,10.46-3.56c0.17,0,0.33,0,0.5,0.01
			c9.08,0,13.64,3.86,13.66,11.59v8.2c-0.02,10.05-5.86,15.24-17.5,15.6h-1.9c-5.43-0.1-9.62-1.4-12.56-3.89
			c-3.09-2.64-4.64-6.62-4.64-11.93V151.4c0.07-9.14,5.98-13.85,17.72-14.12H100.65 M100.36,167.22c-0.09,0-0.17,0-0.26,0
			c-3.72,0-6.07,1.08-7.05,3.25v9.4c-0.05,3.15,1.69,4.91,5.22,5.29l1.9,0.04c3.7-0.15,5.53-1.99,5.48-5.51v-8.5
			c-0.05-2.65-1.66-3.97-4.85-3.97C100.66,167.21,100.51,167.21,100.36,167.22 M100.67,135.61h-0.02h-1.86
			c-15.92,0.38-19.32,8.78-19.37,15.77l0,26.9c0,5.79,1.76,10.23,5.22,13.19c3.24,2.74,7.81,4.18,13.61,4.29l1.93,0h0.03l0.03,0
			c15.75-0.48,19.08-9.64,19.1-17.25v-8.2c-0.02-6.05-2.69-13.25-15.32-13.25c-0.14,0-0.32-0.01-0.5-0.01c-3.26,0-6.2,0.71-8.8,2.11
			v-7.85c0.02-1.59,0.54-3.11,4.1-3.29l1.73,0.03c3.01,0.34,3.46,1.66,3.49,3.03l0,3.58v1.66h1.66h11.98h1.66v-1.66v-3.06
			c0.06-7.11-3.13-15.66-18.64-16.01L100.67,135.61L100.67,135.61z M100.38,168.88l0.04,0c0.13,0,0.26-0.01,0.38-0.01
			c2.91,0,3.17,1.16,3.2,2.35l0,8.47c0.04,2.62-1.08,3.73-3.84,3.86l-1.77-0.04c-3.27-0.37-3.7-1.95-3.67-3.61l0-9.05
			c0.4-0.71,1.51-1.98,5.39-1.98l0.23,0L100.38,168.88L100.38,168.88z"/>
	</g>
	<g>
		<path class="st6" d="M141.16,194.93c-12.17-0.37-18.35-6.22-18.4-17.4v-25c-0.05-10.25,6.13-15.67,18.37-16.08l2.13-0.04
			c12.42,0.08,18.71,5.58,18.74,16.35v25c-0.03,11.11-6.32,16.89-18.71,17.18h-0.01H141.16z M141.17,147.01
			c-2.94,0.3-4.34,1.9-4.34,5.03v27.42c0,3.17,1.4,4.78,4.4,5.07l2.04,0c3.05-0.24,4.5-1.85,4.5-5.06v-27.42
			c0-3.18-1.44-4.79-4.53-5.06L141.17,147.01z"/>
		<path class="st7" d="M143.28,137.23c11.91,0.08,17.87,5.25,17.9,15.52v25c-0.02,10.62-5.99,16.07-17.9,16.35h-2.12
			c-11.66-0.35-17.52-5.88-17.57-16.58v-25c-0.05-9.77,5.81-14.85,17.57-15.26L143.28,137.23 M141.16,185.35h2.12
			c3.56-0.28,5.33-2.24,5.33-5.89v-27.42c0-3.63-1.78-5.59-5.33-5.89l-2.12,0.04c-3.43,0.35-5.15,2.3-5.15,5.85v27.42
			C136.01,183.05,137.73,185.02,141.16,185.35 M143.27,135.58l-0.02,0l-2.12,0.04c-15.94,0.55-19.23,9.5-19.2,16.92l0,24.99
			c0.05,11.55,6.68,17.86,19.18,18.23l0.03,0h0.03h2.12c16.14-0.37,19.54-10,19.55-18v-25c-0.02-7.78-3.42-17.08-19.54-17.18
			L143.27,135.58L143.27,135.58z M141.26,147.84l1.96-0.04c2.65,0.25,3.74,1.48,3.74,4.23v27.42c0,2.78-1.09,4.01-3.74,4.23h-1.97
			c-2.54-0.26-3.58-1.5-3.58-4.23v-27.42C137.67,149.34,138.71,148.12,141.26,147.84L141.26,147.84z"/>
	</g>
</g>
</svg>
